<svg width="44" height="44" viewBox="0 0 44 44" fill="none" xmlns="http://www.w3.org/2000/svg">
<path d="M3.92285 23.8766C3.47726 19.5745 4.58023 15.2545 7.03363 11.6926C9.48703 8.13066 13.1301 5.56025 17.3084 4.44307C21.4867 3.32588 25.9265 3.73513 29.8301 5.59731C33.7338 7.45948 36.8456 10.6525 38.6065 14.6029C38.6291 14.6522 38.6517 14.7015 38.6702 14.7508" stroke="#0060F9" stroke-width="3" stroke-linecap="round" stroke-linejoin="round"/>
<path d="M40.0337 19.6895C40.5937 24.0436 39.5593 28.4533 37.1214 32.1042C34.6835 35.755 31.0069 38.4004 26.7706 39.5518C22.5343 40.7032 18.0244 40.2828 14.0739 38.3682C10.1234 36.4536 6.99918 33.1742 5.27815 29.1356" stroke="#0060F9" stroke-width="3" stroke-linecap="round" stroke-linejoin="round"/>
<path d="M4.23706 35.1181L4.51304 28.8672L9.92197 30.3046" stroke="#0060F9" stroke-width="3" stroke-linecap="round" stroke-linejoin="round"/>
<path d="M39.6641 8.57812L38.703 14.829L33.2941 13.3915" stroke="#0060F9" stroke-width="3" stroke-linecap="round" stroke-linejoin="round"/>
<path d="M31.9593 17.0322V30.2137C31.9593 30.436 31.9155 30.6562 31.8303 30.8617C31.7452 31.0671 31.6203 31.2537 31.463 31.4109C31.3057 31.568 31.1189 31.6926 30.9133 31.7775C30.7078 31.8625 30.4876 31.906 30.2652 31.9057H20.396L16.6073 31.8955L15.0261 31.877" stroke="#0060F9" stroke-width="3" stroke-linecap="round" stroke-linejoin="round"/>
<path d="M12.0539 26.1644L12.0539 21.2204V13.7497C12.0539 13.5273 12.0977 13.3071 12.1829 13.1017C12.268 12.8963 12.3928 12.7096 12.5502 12.5525C12.7075 12.3953 12.8943 12.2707 13.0998 12.1858C13.3054 12.1009 13.5256 12.0573 13.748 12.0576L26.2802 12.0576" stroke="#0060F9" stroke-width="3" stroke-linecap="round" stroke-linejoin="round"/>
<path d="M19.1603 31.9557V26.2705" stroke="#0060F9" stroke-width="3" stroke-linecap="round" stroke-linejoin="round"/>
<path d="M24.8455 24.1387V26.2706" stroke="#0060F9" stroke-width="3" stroke-linecap="round" stroke-linejoin="round"/>
<path d="M19.1603 17.7422V20.5432" stroke="#0060F9" stroke-width="3" stroke-linecap="round" stroke-linejoin="round"/>
<path d="M19.1603 20.5859H12.0539" stroke="#0060F9" stroke-width="3" stroke-linecap="round" stroke-linejoin="round"/>
<path d="M24.8455 26.2711L31.9733 26.2705" stroke="#0060F9" stroke-width="3" stroke-linecap="round" stroke-linejoin="round"/>
<path d="M19.1603 26.2705L17.0284 26.2705" stroke="#0060F9" stroke-width="3" stroke-linecap="round" stroke-linejoin="round"/>
<path d="M24.8455 13.4785V19.1637H30.5307" stroke="#0060F9" stroke-width="3" stroke-linecap="round" stroke-linejoin="round"/>
<path d="M31.952 17.0321C30.7034 16.0916 27.519 12.9954 26.2668 12.0576" stroke="#0060F9" stroke-width="3" stroke-linecap="round" stroke-linejoin="round"/>
</svg>
