<svg width="33" height="33" viewBox="0 0 33 33" fill="none" xmlns="http://www.w3.org/2000/svg">
<path d="M31.5003 9.6819V29.0181C31.5003 29.3443 31.4332 29.6674 31.3029 29.9687C31.1726 30.27 30.9816 30.5438 30.7409 30.7743C30.5001 31.0049 30.2143 31.1877 29.8999 31.3122C29.5854 31.4368 29.2484 31.5007 28.9081 31.5003H13.8074L8.01034 31.4852L3.50464 31.4957C2.39826 31.4982 1.50001 30.602 1.50001 29.4957L1.5 4.05116C1.5 3.71587 1.56609 3.38388 1.69449 3.07416C1.82289 2.76443 2.01109 2.48306 2.24831 2.24612C2.48553 2.00918 2.76714 1.82133 3.07702 1.69331C3.38689 1.56528 3.71897 1.49959 4.05425 1.5H22.9491" stroke="#0060F9" stroke-width="3" stroke-linecap="round" stroke-linejoin="round"/>
<path d="M14.3571 31.5004V19.9092" stroke="#0060F9" stroke-width="3" stroke-linecap="round" stroke-linejoin="round"/>
<path d="M21.9546 16.5V19.7143" stroke="#0060F9" stroke-width="3" stroke-linecap="round" stroke-linejoin="round"/>
<path d="M12.2144 10.0723V14.2953" stroke="#0060F9" stroke-width="3" stroke-linecap="round" stroke-linejoin="round"/>
<path d="M12.2144 1.5V4.35965" stroke="#0060F9" stroke-width="3" stroke-linecap="round" stroke-linejoin="round"/>
<path d="M12.2144 14.3574H1.5" stroke="#0060F9" stroke-width="3" stroke-linecap="round" stroke-linejoin="round"/>
<path d="M21.9546 19.9092H31.5001" stroke="#0060F9" stroke-width="3" stroke-linecap="round" stroke-linejoin="round"/>
<path d="M14.3572 22.9277L10.0714 22.9277" stroke="#0060F9" stroke-width="3" stroke-linecap="round" stroke-linejoin="round"/>
<path d="M16.5 19.9092L14.4546 19.9092" stroke="#0060F9" stroke-width="3" stroke-linecap="round" stroke-linejoin="round"/>
<path d="M21.9546 2.86328V11.0452H30.1365" stroke="#0060F9" stroke-width="3" stroke-linecap="round" stroke-linejoin="round"/>
<path d="M31.5 9.6819C28.7727 6.9546 26.0454 4.2273 23.3181 1.5" stroke="#0060F9" stroke-width="3" stroke-linecap="round" stroke-linejoin="round"/>
</svg>
